<svg xmlns="http://www.w3.org/2000/svg" xmlns:xlink="http://www.w3.org/1999/xlink" width="150" height="150" viewBox="0 0 150 150">
  <defs>
    <clipPath id="clip-path">
      <rect id="Rectangle_69" data-name="Rectangle 69" width="85" height="66" fill="#f6efd5"/>
    </clipPath>
  </defs>
  <g id="icon_btn_lang" transform="translate(-80 -41)">
    <g id="Group_58" data-name="Group 58" transform="translate(80 41)">
      <circle id="Ellipse_3" data-name="Ellipse 3" cx="74" cy="74" r="74" transform="translate(2 2)" fill="#1a9f98"/>
      <circle id="Ellipse_2" data-name="Ellipse 2" cx="74" cy="74" r="74" fill="#37ccc5"/>
    </g>
    <g id="Group_61" data-name="Group 61" transform="translate(113 83)">
      <g id="Group_61-2" data-name="Group 61" clip-path="url(#clip-path)">
        <path id="Path_31" data-name="Path 31" d="M27.142,0a7.221,7.221,0,0,0,1.064.078A28.423,28.423,0,0,1,42.93,5.271a23.074,23.074,0,0,1,7.586,9.1,29.887,29.887,0,0,1,21.6,2.265c6.648,3.505,11.744,9.819,12.413,17.461.017.2.028.8.073.715v2.027a.514.514,0,0,0-.039.227,20.337,20.337,0,0,1-4.808,11.795,86.233,86.233,0,0,0,4.782,14.56.752.752,0,0,0,.065.208v.617a1.814,1.814,0,0,1-1.41,1.366h-.573a38.217,38.217,0,0,1-14.793-8.774,30.288,30.288,0,0,1-16.269.715,28.358,28.358,0,0,1-7.271-2.771A23.442,23.442,0,0,1,34.07,43.967a30.094,30.094,0,0,1-17.3-.44A38.18,38.18,0,0,1,2.183,52.233,1.726,1.726,0,0,1,0,50.892v-.573c.023-.034.036-.138.065-.207A95.4,95.4,0,0,0,3.43,40.893c.542-1.768,1.014-3.526,1.416-5.343A20.363,20.363,0,0,1,.038,23.756.354.354,0,0,0,0,23.529V21.5a2.315,2.315,0,0,0,.043-.317A21.06,21.06,0,0,1,7.149,7.06a27.989,27.989,0,0,1,17.219-7A4.628,4.628,0,0,0,25.16,0Zm-11.9,40.3a1.63,1.63,0,0,1,1.7-.311,26.35,26.35,0,0,0,8.483,1.63A25.629,25.629,0,0,0,40.13,37.578a19.625,19.625,0,0,0,7.609-9.049,16.259,16.259,0,0,0-.115-12.312C45.107,10.2,39.418,6.05,33.232,4.353a26.81,26.81,0,0,0-14.3.033c-6.217,1.74-11.9,5.952-14.359,12.037a16.229,16.229,0,0,0,.47,13.225A18.736,18.736,0,0,0,7.912,33.9a1.743,1.743,0,0,1,.42,1.571A82.1,82.1,0,0,1,4.717,47.647,37.172,37.172,0,0,0,15.243,40.3M69.381,53.631a37.3,37.3,0,0,0,10.4,7.278c.028.013.083.022.079,0s-.009-.056-.014-.069l-.025-.067a81.147,81.147,0,0,1-3.553-11.995,1.78,1.78,0,0,1,.464-1.624,18.235,18.235,0,0,0,3.187-5,16.187,16.187,0,0,0,.313-11.883,19.533,19.533,0,0,0-7.792-9.519,26.231,26.231,0,0,0-20.78-3.173,19.944,19.944,0,0,1-3.758,17.4,25.614,25.614,0,0,1-10.592,7.883,19.956,19.956,0,0,0,7.368,8.127A26.2,26.2,0,0,0,67.591,53.32a1.665,1.665,0,0,1,1.79.311" fill="#f6efd5"/>
        <path id="Path_32" data-name="Path 32" d="M418.971,287.454h-6.877L410.65,291.4a1.7,1.7,0,1,1-3.213-1.1l6.482-17.681a1.7,1.7,0,0,1,3.187-.129l6.541,17.891a1.684,1.684,0,0,1-1.133,2.1,1.711,1.711,0,0,1-2.113-1.1Zm-1.243-3.391-2.192-5.975-2.2,5.977Z" transform="translate(-389.389 -259.483)" fill="#f6efd5"/>
        <path id="Path_33" data-name="Path 33" d="M1217.932,623.061a14.091,14.091,0,0,0,5.018-2.181,21.145,21.145,0,0,1-3-4.511,1.709,1.709,0,1,1,3.074-1.481,16.429,16.429,0,0,0,2.446,3.733,18.077,18.077,0,0,0,3.792-7.231h-12.891a1.719,1.719,0,0,1-1.785-1.612,1.679,1.679,0,0,1,1.647-1.784l6.232-.007.012-1.569a1.691,1.691,0,0,1,3.379-.034l.018,1.6h5.422a1.712,1.712,0,0,1,1.352.594,1.775,1.775,0,0,1,.372,1.495,22.958,22.958,0,0,1-5.052,10.788,13.7,13.7,0,0,0,3.84,1.872,1.7,1.7,0,1,1-.97,3.258,17.172,17.172,0,0,1-5.382-2.776,17.4,17.4,0,0,1-6.689,3.146,1.724,1.724,0,0,1-2.16-1.219,1.707,1.707,0,0,1,1.32-2.085" transform="translate(-1161.07 -578.129)" fill="#f6efd5"/>
      </g>
    </g>
  </g>
</svg>
