<svg xmlns="http://www.w3.org/2000/svg" width="150" height="150" viewBox="0 0 150 150">
  <g id="Group_59" data-name="Group 59" transform="translate(-80 -41)">
    <g id="Group_58" data-name="Group 58" transform="translate(80 41)">
      <circle id="Ellipse_3" data-name="Ellipse 3" cx="74" cy="74" r="74" transform="translate(2 2)" fill="#1a9f98"/>
      <circle id="Ellipse_2" data-name="Ellipse 2" cx="74" cy="74" r="74" fill="#37ccc5"/>
    </g>
    <path id="restart-svgrepo-com" d="M55.78,33.039A29.529,29.529,0,0,0,24,16.868l3.375-6.328a2.9,2.9,0,0,0-5.062-2.812l-6.89,12.8s-1.547,2.531.844,3.656l12.8,6.89a2.713,2.713,0,0,0,1.406.422,2.937,2.937,0,0,0,1.406-5.484l-6.609-3.656A23.591,23.591,0,0,1,50.3,35.289,23.4,23.4,0,0,1,8.112,55.537a23.162,23.162,0,0,1-.984-17.858,2.979,2.979,0,0,0-1.828-3.8,3.335,3.335,0,0,0-3.656,2.109,29.448,29.448,0,0,0,27.7,39.09A28.342,28.342,0,0,0,42,72.129a29.3,29.3,0,0,0,13.78-39.09Z" transform="translate(125.65 75.355)" fill="#f6efd5"/>
  </g>
</svg>
