<svg xmlns="http://www.w3.org/2000/svg" xmlns:xlink="http://www.w3.org/1999/xlink" width="40" height="40" viewBox="0 0 40 40">
  <defs>
    <clipPath id="clip-path">
      <rect id="Rectangle_9" data-name="Rectangle 9" width="40" height="40" transform="translate(-223 4103)" fill="#713f3e"/>
    </clipPath>
    <clipPath id="clip-path-2">
      <rect id="Rectangle_8" data-name="Rectangle 8" width="38.573" height="38.547" transform="translate(0 0)" fill="#713f3e"/>
    </clipPath>
  </defs>
  <g id="icon_grid" transform="translate(223 -4103)" clip-path="url(#clip-path)">
    <g id="Group_19" data-name="Group 19" transform="translate(-222 4104)">
      <g id="Group_18" data-name="Group 18" clip-path="url(#clip-path-2)">
        <path id="Path_9" data-name="Path 9" d="M34.89,38.524l-31.031.023A4.061,4.061,0,0,1,.011,34.512L0,3.939A3.988,3.988,0,0,1,3.9.1L34.456,0a3.688,3.688,0,0,1,4.063,3.993l.054,30.551c0,2-.988,3.978-3.683,3.98M23.2,11.287c.208-3.19.377-5.235-.252-7.582a25.21,25.21,0,0,0-7.406.092,19.976,19.976,0,0,0-.083,7.466,12.963,12.963,0,0,0,7.741.024m11.717-.032a45.4,45.4,0,0,0-.052-7.084,14.218,14.218,0,0,0-7.525-.334,17.483,17.483,0,0,0-.184,7.5,13.707,13.707,0,0,0,7.761-.078m-23.286.212a30.025,30.025,0,0,0-.071-7.409,11.7,11.7,0,0,0-7.5.063,12.067,12.067,0,0,0-.04,7.411,21.492,21.492,0,0,0,7.612-.065m0,11.606a26.9,26.9,0,0,0-.152-7.7,35.37,35.37,0,0,0-7.51,0,14.883,14.883,0,0,0-.011,7.817,27.012,27.012,0,0,0,7.673-.111m11.539-.026A23.975,23.975,0,0,0,23,15.428a20.194,20.194,0,0,0-7.5.118,20.649,20.649,0,0,0-.027,7.437,18.285,18.285,0,0,0,7.7.064m11.691-.055a25.349,25.349,0,0,0-.164-7.481,18.076,18.076,0,0,0-7.455,0,19.688,19.688,0,0,0-.058,7.542,19.163,19.163,0,0,0,7.677-.061m-23.4,11.719a19.9,19.9,0,0,0,.034-7.574,29.278,29.278,0,0,0-7.535-.014,13.6,13.6,0,0,0,.18,7.8c2.616.059,4.625.345,7.321-.208m11.633.053a22.313,22.313,0,0,0-.053-7.567,18.475,18.475,0,0,0-7.565.128,19.594,19.594,0,0,0,.05,7.378,22.485,22.485,0,0,0,7.568.061m11.613-.156a20.113,20.113,0,0,0,0-7.309,17.729,17.729,0,0,0-7.539-.052,19.714,19.714,0,0,0,.079,7.52,19.688,19.688,0,0,0,7.456-.159" fill="#713f3e"/>
      </g>
    </g>
  </g>
</svg>
