<svg xmlns="http://www.w3.org/2000/svg" width="30" height="30" viewBox="0 0 30 30">
  <g id="icon_btn_last_page" transform="translate(372 -3678)">
    <path id="Polygon_3" data-name="Polygon 3" d="M12.6,3.2a3,3,0,0,1,4.8,0l9,12A3,3,0,0,1,24,20H6a3,3,0,0,1-2.4-4.8Z" transform="translate(-342 3698) rotate(180)" fill="#7c6060"/>
    <path id="Polygon_4" data-name="Polygon 4" d="M12.6,3.2a3,3,0,0,1,4.8,0l9,12A3,3,0,0,1,24,20H6a3,3,0,0,1-2.4-4.8Z" transform="translate(-342 3708) rotate(180)" fill="#7c6060"/>
  </g>
</svg>
