<svg xmlns="http://www.w3.org/2000/svg" xmlns:xlink="http://www.w3.org/1999/xlink" width="180" height="129.13" viewBox="0 0 180 129.13">
  <defs>
    <clipPath id="clip-path">
      <rect id="Rectangle_29" data-name="Rectangle 29" width="180" height="129.13" fill="#84653c"/>
    </clipPath>
  </defs>
  <g id="Group_26" data-name="Group 26" transform="translate(0 0.485)">
    <g id="Group_25" data-name="Group 25" transform="translate(0 -0.485)" clip-path="url(#clip-path)">
      <path id="Path_13" data-name="Path 13" d="M92.9,0c.006.054-.035.089.133.1A51.538,51.538,0,0,1,141.6,51.732l0,8.035,0,4.483,7.427.04a30.912,30.912,0,0,1,17.1,5.579,32.12,32.12,0,0,1,13.707,21.853l.16,1.176c0,.03,0,.137,0,.2v.178c0,.025.023.107.032.156l.03.158c.005.028.018.131.018.156l0,.476.093.091v4.317A7.194,7.194,0,0,0,180,99.82a32.192,32.192,0,0,1-24.637,27.994,26.9,26.9,0,0,1-4.662.684l-1.277.071a.517.517,0,0,0-.216.086H107.072s-.08-.063-.1-.077a4.148,4.148,0,0,1-4.052-4.1,4.275,4.275,0,0,1,4.145-4.4L149.005,120a21.955,21.955,0,0,0,10.543-3.053,23.485,23.485,0,0,0,5.558-36.662,23.135,23.135,0,0,0-12.569-6.936,26.363,26.363,0,0,0-5.034-.5h-6.9c-1.31,0-2.551.048-3.855,0a3.757,3.757,0,0,1-3.469-2.769,7.458,7.458,0,0,1-.3-2.069l-.034-16.469c-.021-10.452-4.374-21.888-11.807-29.282L119.9,21.038C107.284,8.486,87.55,5.406,71.454,13.161A42.911,42.911,0,0,0,48.868,40.053a48.809,48.809,0,0,0-1.452,7.185c-.35,2.682-1.745,4.042-4.474,4.158a45.621,45.621,0,0,0-6.762.732,32.948,32.948,0,0,0-16.655,8.589,37.039,37.039,0,0,0-5.06,5.933A33.188,33.188,0,0,0,8.686,84.4a35.139,35.139,0,0,0,10.6,26.1,33.972,33.972,0,0,0,23.8,9.528l29.894.02a4.166,4.166,0,0,1,2.8,1.045,4.38,4.38,0,0,1-2.213,7.562H41.008a1.09,1.09,0,0,0-.485-.084,44.808,44.808,0,0,1-11.608-2.263A42.367,42.367,0,0,1,8.184,110.982,41.992,41.992,0,0,1,.092,88.877.519.519,0,0,0,0,88.68v-5.63A43.722,43.722,0,0,1,12.02,55.9,42.379,42.379,0,0,1,39.312,42.975,51.674,51.674,0,0,1,66.267,5.815,53.172,53.172,0,0,1,87.084,0Z" transform="translate(0 0.474)" fill="#84653c"/>
      <path id="Path_14" data-name="Path 14" d="M712.2,707.7H711.07a.616.616,0,0,0-.219-.1,4.082,4.082,0,0,1-2.951-2.157,5.138,5.138,0,0,1-.6-2.272l-.009-46.932-.065-2.341-1.971,1.926-11.767,11.73a4.935,4.935,0,0,1-1.916,1.2,4.267,4.267,0,0,1-4.413-7.04l13.994-14.037,6.234-6.24a13.011,13.011,0,0,1,2.15-1.786,3.8,3.8,0,0,1,4.089-.088,7.4,7.4,0,0,1,1.4,1.05l20.43,20.433a8.678,8.678,0,0,1,1.292,1.732,4.011,4.011,0,0,1-1.231,5.439,4.343,4.343,0,0,1-5.614-.478l-13.951-13.947,0,7.1-.007,35.15-.086,7.733A4.183,4.183,0,0,1,712.2,707.7" transform="translate(-621.546 -578.57)" fill="#84653c"/>
      <path id="Path_15" data-name="Path 15" d="M951.584,179.537a4.6,4.6,0,0,1-3.074-4.4,30.1,30.1,0,0,0-22.659-28.773,39.133,39.133,0,0,0-7.582-1.024,4.249,4.249,0,0,1,.141-8.495,38.424,38.424,0,0,1,8.488.9,38.014,38.014,0,0,1,23.018,15.278,40.011,40.011,0,0,1,6.973,18.256c.254,2.083.616,4.821-.561,6.6a4.014,4.014,0,0,1-4.744,1.657" transform="translate(-828.408 -123.53)" fill="#84653c"/>
    </g>
  </g>
</svg>
