<svg xmlns="http://www.w3.org/2000/svg" width="100" height="100" viewBox="0 0 100 100">
  <g id="icon_btn_close" transform="translate(-1392 -7922)">
    <circle id="Ellipse_4" data-name="Ellipse 4" cx="50" cy="50" r="50" transform="translate(1392 7922)" fill="#fff"/>
    <circle id="Ellipse_5" data-name="Ellipse 5" cx="40" cy="40" r="40" transform="translate(1402 7932)" fill="#f8e5cd"/>
    <path id="Path_30" data-name="Path 30" d="M55.6,46.3c3.177,6.953,19.782,15.121,13.249,22.71-6.729,7.817-16.378-8.728-22.208-13.288C39.563,59.515,31.489,76.07,24.29,69.458c-1.905-1.75-3.224-5.785-.806-8.384l13.8-14.831L23.669,32.617c-2.236-2.238-1.739-6.225-.137-8.225s5.847-3.153,8.171-.926L45.928,37.1C52.415,34.656,61.647,15.84,68.9,24.45c1.638,1.943,2.113,5.837-.1,8.132Z" transform="translate(1395.842 7925.79)" fill="#9c7e7d"/>
  </g>
</svg>
