<svg xmlns="http://www.w3.org/2000/svg" xmlns:xlink="http://www.w3.org/1999/xlink" width="60" height="60" viewBox="0 0 60 60">
  <defs>
    <clipPath id="clip-path">
      <rect id="Rectangle_26" data-name="Rectangle 26" width="31.605" height="34.759" transform="translate(-2 -2)" fill="#f6efd5" stroke="#f6efd4" stroke-width="1"/>
    </clipPath>
  </defs>
  <g id="icon_info" transform="translate(113 -5581)">
    <circle id="Ellipse_1" data-name="Ellipse 1" cx="30" cy="30" r="30" transform="translate(-113 5581)" fill="#37ccc5"/>
    <g id="Group_22" data-name="Group 22" transform="translate(-96.802 5595.121)">
      <g id="Group_22-2" data-name="Group 22" clip-path="url(#clip-path)">
        <path id="Path_10" data-name="Path 10" d="M23.6,4.081a.691.691,0,0,1-.034.936Zm-1.008.936A12.43,12.43,0,0,0,5.046,4.982l-.03.033h0a12.417,12.417,0,0,0-.221,17.347.688.688,0,0,1,.221.575l-.685-.067.683.067-.472,4.79,3.743-2.4a.7.7,0,0,1,.674-.075h0a12.15,12.15,0,0,0,2.367.734,12.543,12.543,0,0,0,2.479.244,12.388,12.388,0,0,0,8.788-3.639l.486.486-.484-.486a12.428,12.428,0,0,0,.029-17.542ZM13.8,0a13.771,13.771,0,0,1,9.762,4.043l.034.038a13.8,13.8,0,0,1-.037,19.48h0l-.016.016A13.766,13.766,0,0,1,13.8,27.606a13.928,13.928,0,0,1-2.748-.277,13.732,13.732,0,0,1-2.294-.676l-4.671,3-.37-.579.372.58a.69.69,0,0,1-1.05-.7l.576-5.839A13.8,13.8,0,0,1,4.043,4.045l.486.484-.486-.486.037-.036A13.763,13.763,0,0,1,13.8,0" fill="#f6efd5"/>
        <path id="Path_10_-_Outline" data-name="Path 10 - Outline" d="M3.938,30.34l-.059-.092a1.191,1.191,0,0,1-1.335-1.36l.553-5.6A14.3,14.3,0,0,1,3.343,4.05l-.013-.013.4-.386.085-.084.227-.227.005.005a14.3,14.3,0,0,1,19.87.345l.045.049a14.3,14.3,0,0,1,.428,19.679l.013.006-.5.508a14.215,14.215,0,0,1-10.1,4.176,14.465,14.465,0,0,1-2.847-.287,14.234,14.234,0,0,1-2.137-.609L4.78,29.8h0l-.421.271L4.3,30.1ZM4.05,4.758a13.285,13.285,0,0,0-.065,18.018l.15.165-.6,6.1a.187.187,0,0,0,.026.135v0l.579-.371h0l.1.157L8.7,26.095l.237.093a13.266,13.266,0,0,0,2.21.652,13.463,13.463,0,0,0,2.65.267,13.216,13.216,0,0,0,9.245-3.737l.161-.162a13.3,13.3,0,0,0,.8-17.938,1.178,1.178,0,0,1-.089.1l-.171.172a12.932,12.932,0,0,1-.455,17.042l.139.139-.708.706-.14-.14A12.835,12.835,0,0,1,13.8,26.729a13.08,13.08,0,0,1-2.578-.254,12.678,12.678,0,0,1-2.464-.764L8.737,25.7a.2.2,0,0,0-.164.03l-.02.014L3.941,28.706l.524-5.32-.185-.018.073-.743A12.932,12.932,0,0,1,4.66,4.662l.033-.034.077-.076.037-.036a12.93,12.93,0,0,1,18.131.144l.037.036.1.1.019-.514A13.3,13.3,0,0,0,4.757,4.05l.126.126-.706.708ZM5.46,23.484l-.322,3.265L8,24.909a1.208,1.208,0,0,1,.684-.215,1.184,1.184,0,0,1,.463.094l.221.094a11.668,11.668,0,0,0,2.048.612,12.08,12.08,0,0,0,2.381.234,11.849,11.849,0,0,0,8.434-3.493l.152-.152a11.931,11.931,0,0,0,.65-15.83l-.021.021,0-.045q-.353-.427-.748-.826l-.035-.034a11.93,11.93,0,0,0-16.83-.041l-.171.186H5.224a11.917,11.917,0,0,0-.079,16.491,1.184,1.184,0,0,1,.306.471l.108.011-.042.423q0,.036,0,.072l-.047.5Z" fill="#f6efd4"/>
        <path id="Path_11" data-name="Path 11" d="M298.339,275.2l-1.315.038q2.507-2.464,4.258-.038c-.078,5.056-.1,7.992-.1,7.992l2.129-.02c-1.528,2.069-3.869,2.026-5.05.659q.077-8.632.076-8.631" transform="translate(-286.08 -263.905)" fill="#f6efd5" fill-rule="evenodd"/>
        <path id="Path_11_-_Outline" data-name="Path 11 - Outline" d="M300.407,285.3a3.327,3.327,0,0,1-2.524-1.143l-.123-.143,0-.189q.058-6.515.072-8.112l-.8.023-1.276.039.911-.895a4.009,4.009,0,0,1,2.685-1.384,2.892,2.892,0,0,1,2.328,1.41l.1.134,0,.166c-.059,3.806-.084,6.431-.093,7.479l2.622-.024-.6.806A4.175,4.175,0,0,1,300.407,285.3Zm-1.643-1.665a2.336,2.336,0,0,0,1.643.665,2.808,2.808,0,0,0,1.721-.617l-1.449.013,0-.508c0-.029.02-2.928.095-7.825a1.841,1.841,0,0,0-1.421-.866,1.81,1.81,0,0,0-.774.2l.26-.007,0,.519S298.814,278.017,298.764,283.638Z" transform="translate(-286.08 -263.905)" fill="#f6efd4"/>
        <path id="Path_12" data-name="Path 12" d="M330.535,176.143a1.49,1.49,0,1,0-1.491-1.491,1.492,1.492,0,0,0,1.491,1.491" transform="translate(-316.922 -166.783)" fill="#f6efd5" fill-rule="evenodd"/>
        <path id="Path_12_-_Outline" data-name="Path 12 - Outline" d="M330.535,176.643a1.99,1.99,0,1,1,1.991-1.991A1.993,1.993,0,0,1,330.535,176.643Zm0-2.98a.99.99,0,1,0,.991.989A.991.991,0,0,0,330.535,173.663Z" transform="translate(-316.922 -166.783)" fill="#f6efd4"/>
      </g>
    </g>
  </g>
</svg>
