<svg xmlns="http://www.w3.org/2000/svg" width="2600" height="600" viewBox="0 0 2600 600">
  <g id="Group_1" data-name="Group 1" transform="translate(-960 -3112)">
    <g id="Color-13-Group">
      <rect id="Color-13" width="200" height="100" transform="translate(3360 3112)" fill="#cd638b"/>
      <rect id="Color-13-10" width="100" height="100" transform="translate(3460 3612)" fill="#725e66"/>
      <rect id="Color-13-8" width="100" height="100" transform="translate(3460 3512)" fill="#e4d5da"/>
      <rect id="Color-13-6" width="100" height="100" transform="translate(3460 3412)" fill="#8b5367"/>
      <rect id="Color-13-4" width="100" height="100" transform="translate(3460 3312)" fill="#d9a1b4"/>
      <rect id="Color-13-2" width="100" height="100" transform="translate(3460 3212)" fill="#cf6b8f"/>
      <rect id="Color-13-9" width="100" height="100" transform="translate(3360 3612)" fill="#bcadb1"/>
      <rect id="Color-13-7" width="100" height="100" transform="translate(3360 3512)" fill="#60354b"/>
      <rect id="Color-13-5" width="100" height="100" transform="translate(3360 3412)" fill="#b3798b"/>
      <rect id="Color-13-3" width="100" height="100" transform="translate(3360 3312)" fill="#862658"/>
      <rect id="Color-13-1" width="100" height="100" transform="translate(3360 3212)" fill="#ad356f"/>
    </g>
    <g id="Color-12-Group">
      <rect id="Color-12" width="200" height="100" transform="translate(3160 3112)" fill="#a164a7"/>
      <rect id="Color-12-10" width="100" height="100" transform="translate(3260 3612)" fill="#605664"/>
      <rect id="Color-12-8" width="100" height="100" transform="translate(3260 3512)" fill="#cfc9d1"/>
      <rect id="Color-12-6" width="100" height="100" transform="translate(3260 3412)" fill="#6c4d73"/>
      <rect id="Color-12-4" width="100" height="100" transform="translate(3260 3312)" fill="#b89bb9"/>
      <rect id="Color-12-2" width="100" height="100" transform="translate(3260 3212)" fill="#a167a9"/>
      <rect id="Color-12-9" width="100" height="100" transform="translate(3160 3612)" fill="#aba1ac"/>
      <rect id="Color-12-7" width="100" height="100" transform="translate(3160 3512)" fill="#432e4b"/>
      <rect id="Color-12-5" width="100" height="100" transform="translate(3160 3412)" fill="#907395"/>
      <rect id="Color-12-3" width="100" height="100" transform="translate(3160 3312)" fill="#602b6c"/>
      <rect id="Color-12-1" width="100" height="100" transform="translate(3160 3212)" fill="#813d8b"/>
    </g>
    <g id="Color-11-Group">
      <rect id="Color-11" width="200" height="100" transform="translate(2960 3112)" fill="#7474bb"/>
      <rect id="Color-11-10" width="100" height="100" transform="translate(3060 3612)" fill="#565869"/>
      <rect id="Color-11-8" width="100" height="100" transform="translate(3060 3512)" fill="#c9cad5"/>
      <rect id="Color-11-6" width="100" height="100" transform="translate(3060 3412)" fill="#55567e"/>
      <rect id="Color-11-4" width="100" height="100" transform="translate(3060 3312)" fill="#a2a0c7"/>
      <rect id="Color-11-2" width="100" height="100" transform="translate(3060 3212)" fill="#7577bd"/>
      <rect id="Color-11-9" width="100" height="100" transform="translate(2960 3612)" fill="#a2a3b0"/>
      <rect id="Color-11-7" width="100" height="100" transform="translate(2960 3512)" fill="#333555"/>
      <rect id="Color-11-5" width="100" height="100" transform="translate(2960 3412)" fill="#787aa1"/>
      <rect id="Color-11-3" width="100" height="100" transform="translate(2960 3312)" fill="#3e387e"/>
      <rect id="Color-11-1" width="100" height="100" transform="translate(2960 3212)" fill="#534da1"/>
    </g>
    <g id="Color-10-Group">
      <rect id="Color-10" width="200" height="100" transform="translate(2760 3112)" fill="#2981c0"/>
      <rect id="Color-10-10" width="100" height="100" transform="translate(2860 3612)" fill="#4c5967"/>
      <rect id="Color-10-8" width="100" height="100" transform="translate(2860 3512)" fill="#c1cdd5"/>
      <rect id="Color-10-6" width="100" height="100" transform="translate(2860 3412)" fill="#365b7f"/>
      <rect id="Color-10-4" width="100" height="100" transform="translate(2860 3312)" fill="#83a8c9"/>
      <rect id="Color-10-2" width="100" height="100" transform="translate(2860 3212)" fill="#2b83c1"/>
      <rect id="Color-10-9" width="100" height="100" transform="translate(2760 3612)" fill="#9ba6b0"/>
      <rect id="Color-10-7" width="100" height="100" transform="translate(2760 3512)" fill="#193b56"/>
      <rect id="Color-10-5" width="100" height="100" transform="translate(2760 3412)" fill="#5d80a1"/>
      <rect id="Color-10-3" width="100" height="100" transform="translate(2760 3312)" fill="#054782"/>
      <rect id="Color-10-1" width="100" height="100" transform="translate(2760 3212)" fill="#055ea6"/>
    </g>
    <g id="Color-9-Group">
      <rect id="Color-9" width="200" height="100" transform="translate(2560 3112)" fill="#0094b5"/>
      <rect id="Color-9-10" width="100" height="100" transform="translate(2660 3612)" fill="#4f676f"/>
      <rect id="Color-9-8" width="100" height="100" transform="translate(2660 3512)" fill="#c6dde2"/>
      <rect id="Color-9-6" width="100" height="100" transform="translate(2660 3412)" fill="#246d7f"/>
      <rect id="Color-9-4" width="100" height="100" transform="translate(2660 3312)" fill="#79bbca"/>
      <rect id="Color-9-2" width="100" height="100" transform="translate(2660 3212)" fill="#0599ba"/>
      <rect id="Color-9-9" width="100" height="100" transform="translate(2560 3612)" fill="#9eb5ba"/>
      <rect id="Color-9-7" width="100" height="100" transform="translate(2560 3512)" fill="#05495b"/>
      <rect id="Color-9-5" width="100" height="100" transform="translate(2560 3412)" fill="#5193a5"/>
      <rect id="Color-9-3" width="100" height="100" transform="translate(2560 3312)" fill="#055878"/>
      <rect id="Color-9-1" width="100" height="100" transform="translate(2560 3212)" fill="#05729c"/>
    </g>
    <g id="Color-8-Group">
      <rect id="Color-8" width="200" height="100" transform="translate(2360 3112)" fill="#01aa9f"/>
      <rect id="Color-8-10" width="100" height="100" transform="translate(2460 3612)" fill="#4e6b66"/>
      <rect id="Color-8-8" width="100" height="100" transform="translate(2460 3512)" fill="#bee0da"/>
      <rect id="Color-8-6" width="100" height="100" transform="translate(2460 3412)" fill="#2b7e78"/>
      <rect id="Color-8-4" width="100" height="100" transform="translate(2460 3312)" fill="#7ecdc2"/>
      <rect id="Color-8-2" width="100" height="100" transform="translate(2460 3212)" fill="#05aba0"/>
      <rect id="Color-8-9" width="100" height="100" transform="translate(2360 3612)" fill="#98b7b2"/>
      <rect id="Color-8-7" width="100" height="100" transform="translate(2360 3512)" fill="#054b4b"/>
      <rect id="Color-8-5" width="100" height="100" transform="translate(2360 3412)" fill="#55a49c"/>
      <rect id="Color-8-3" width="100" height="100" transform="translate(2360 3312)" fill="#056966"/>
      <rect id="Color-8-1" width="100" height="100" transform="translate(2360 3212)" fill="#058781"/>
    </g>
    <g id="Color-7-Group">
      <rect id="Color-7" width="200" height="100" transform="translate(2160 3112)" fill="#40b678"/>
      <rect id="Color-7-10" width="100" height="100" transform="translate(2260 3612)" fill="#53695d"/>
      <rect id="Color-7-8" width="100" height="100" transform="translate(2260 3512)" fill="#c3e0cc"/>
      <rect id="Color-7-6" width="100" height="100" transform="translate(2260 3412)" fill="#4f8969"/>
      <rect id="Color-7-4" width="100" height="100" transform="translate(2260 3312)" fill="#9cdaad"/>
      <rect id="Color-7-2" width="100" height="100" transform="translate(2260 3212)" fill="#41b97b"/>
      <rect id="Color-7-9" width="100" height="100" transform="translate(2160 3612)" fill="#9db7a6"/>
      <rect id="Color-7-7" width="100" height="100" transform="translate(2160 3512)" fill="#245640"/>
      <rect id="Color-7-5" width="100" height="100" transform="translate(2160 3412)" fill="#76b28b"/>
      <rect id="Color-7-3" width="100" height="100" transform="translate(2160 3312)" fill="#057447"/>
      <rect id="Color-7-1" width="100" height="100" transform="translate(2160 3212)" fill="#05a25d"/>
    </g>
    <g id="Color-6-Group">
      <rect id="Color-6" width="200" height="100" transform="translate(1960 3112)" fill="#b5c728"/>
      <rect id="Color-6-10" width="100" height="100" transform="translate(2060 3612)" fill="#6e745d"/>
      <rect id="Color-6-8" width="100" height="100" transform="translate(2060 3512)" fill="#e6e9c7"/>
      <rect id="Color-6-6" width="100" height="100" transform="translate(2060 3412)" fill="#85914b"/>
      <rect id="Color-6-4" width="100" height="100" transform="translate(2060 3312)" fill="#d8df93"/>
      <rect id="Color-6-2" width="100" height="100" transform="translate(2060 3212)" fill="#b6c833"/>
      <rect id="Color-6-9" width="100" height="100" transform="translate(1960 3612)" fill="#bcc2a3"/>
      <rect id="Color-6-7" width="100" height="100" transform="translate(1960 3512)" fill="#535e2b"/>
      <rect id="Color-6-5" width="100" height="100" transform="translate(1960 3412)" fill="#acb66c"/>
      <rect id="Color-6-3" width="100" height="100" transform="translate(1960 3312)" fill="#758616"/>
      <rect id="Color-6-1" width="100" height="100" transform="translate(1960 3212)" fill="#a7bb16"/>
    </g>
    <g id="Color-5-Group">
      <rect id="Color-5" width="200" height="100" transform="translate(1760 3112)" fill="#f7d230"/>
      <rect id="Color-5-10" width="100" height="100" transform="translate(1860 3612)" fill="#787259"/>
      <rect id="Color-5-8" width="100" height="100" transform="translate(1860 3512)" fill="#eee7c7"/>
      <rect id="Color-5-6" width="100" height="100" transform="translate(1860 3412)" fill="#ab954b"/>
      <rect id="Color-5-4" width="100" height="100" transform="translate(1860 3312)" fill="#f9e690"/>
      <rect id="Color-5-2" width="100" height="100" transform="translate(1860 3212)" fill="#f9d838"/>
      <rect id="Color-5-9" width="100" height="100" transform="translate(1760 3612)" fill="#c6bfa2"/>
      <rect id="Color-5-7" width="100" height="100" transform="translate(1760 3512)" fill="#756326"/>
      <rect id="Color-5-5" width="100" height="100" transform="translate(1760 3412)" fill="#d4be6f"/>
      <rect id="Color-5-3" width="100" height="100" transform="translate(1760 3312)" fill="#b39416"/>
      <rect id="Color-5-1" width="100" height="100" transform="translate(1760 3212)" fill="#edca16"/>
    </g>
    <g id="Color-4-Group">
      <rect id="Color-4" width="200" height="100" transform="translate(1560 3112)" fill="#fdab34"/>
      <rect id="Color-4-10" width="100" height="100" transform="translate(1660 3612)" fill="#806f5e"/>
      <rect id="Color-4-8" width="100" height="100" transform="translate(1660 3512)" fill="#f5e4ce"/>
      <rect id="Color-4-6" width="100" height="100" transform="translate(1660 3412)" fill="#b3814b"/>
      <rect id="Color-4-4" width="100" height="100" transform="translate(1660 3312)" fill="#fece92"/>
      <rect id="Color-4-2" width="100" height="100" transform="translate(1660 3212)" fill="#feae3b"/>
      <rect id="Color-4-9" width="100" height="100" transform="translate(1560 3612)" fill="#cdbca9"/>
      <rect id="Color-4-7" width="100" height="100" transform="translate(1560 3512)" fill="#795126"/>
      <rect id="Color-4-5" width="100" height="100" transform="translate(1560 3412)" fill="#daa76d"/>
      <rect id="Color-4-3" width="100" height="100" transform="translate(1560 3312)" fill="#b16f16"/>
      <rect id="Color-4-1" width="100" height="100" transform="translate(1560 3212)" fill="#f49e16"/>
    </g>
    <g id="Color-3-Group">
      <rect id="Color-3" width="200" height="100" transform="translate(1360 3112)" fill="#f77f54"/>
      <rect id="Color-3-10" width="100" height="100" transform="translate(1460 3612)" fill="#755e59"/>
      <rect id="Color-3-8" width="100" height="100" transform="translate(1460 3512)" fill="#e9d5d0"/>
      <rect id="Color-3-6" width="100" height="100" transform="translate(1460 3412)" fill="#af6c58"/>
      <rect id="Color-3-4" width="100" height="100" transform="translate(1460 3312)" fill="#feba9f"/>
      <rect id="Color-3-2" width="100" height="100" transform="translate(1460 3212)" fill="#f98358"/>
      <rect id="Color-3-9" width="100" height="100" transform="translate(1360 3612)" fill="#c1aca6"/>
      <rect id="Color-3-7" width="100" height="100" transform="translate(1360 3512)" fill="#753b31"/>
      <rect id="Color-3-5" width="100" height="100" transform="translate(1360 3412)" fill="#d9937c"/>
      <rect id="Color-3-3" width="100" height="100" transform="translate(1360 3312)" fill="#ab4226"/>
      <rect id="Color-3-1" width="100" height="100" transform="translate(1360 3212)" fill="#e95e2b"/>
    </g>
    <g id="Color-2-Group">
      <rect id="Color-2-10" width="100" height="100" transform="translate(1260 3612)" fill="#755e5e"/>
      <rect id="Color-2-8" width="100" height="100" transform="translate(1260 3512)" fill="#e7d5d5"/>
      <rect id="Color-2-6" width="100" height="100" transform="translate(1260 3412)" fill="#a35d5e"/>
      <rect id="Color-2-4" width="100" height="100" transform="translate(1260 3312)" fill="#f5aca6"/>
      <rect id="Color-2-2" width="100" height="100" transform="translate(1260 3212)" fill="#ee6f72"/>
      <rect id="Color-2-9" width="100" height="100" transform="translate(1160 3612)" fill="#c0acab"/>
      <rect id="Color-2-7" width="100" height="100" transform="translate(1160 3512)" fill="#682f39"/>
      <rect id="Color-2-5" width="100" height="100" transform="translate(1160 3412)" fill="#c98483"/>
      <rect id="Color-2-3" width="100" height="100" transform="translate(1160 3312)" fill="#a6263d"/>
      <rect id="Color-2-1" width="100" height="100" transform="translate(1160 3212)" fill="#cf354d"/>
      <rect id="Color-2" width="200" height="100" transform="translate(1160 3112)" fill="#ea696d"/>
    </g>
    <g id="Color-1-Group">
      <rect id="Color-1-5" width="100" height="100" transform="translate(960 3412)" fill="#feffff"/>
      <rect id="Color-1-4" width="100" height="100" transform="translate(1060 3312)" fill="#bebfbf"/>
      <rect id="Color-1-3" width="100" height="100" transform="translate(960 3312)" fill="#808282"/>
      <rect id="Color-1-2" width="100" height="100" transform="translate(1060 3212)" fill="#414545"/>
      <rect id="Color-1-1" width="100" height="100" transform="translate(960 3212)" fill="#051616"/>
      <rect id="Color-1" width="200" height="100" transform="translate(960 3112)" fill="#000000"/>
    </g>
  </g>
</svg>
